<?xml version="1.0" encoding="UTF-8" standalone="no"?>
<svg
   fill="#000000"
   height="800px"
   width="800px"
   version="1.1"
   id="Capa_1"
   viewBox="0 0 198.715 198.715"
   xml:space="preserve"
   sodipodi:docname="power.svg"
   inkscape:version="1.4 (e7c3feb100, 2024-10-09)"
   xmlns:inkscape="http://www.inkscape.org/namespaces/inkscape"
   xmlns:sodipodi="http://sodipodi.sourceforge.net/DTD/sodipodi-0.dtd"
   xmlns="http://www.w3.org/2000/svg"
   xmlns:svg="http://www.w3.org/2000/svg"><defs
   id="defs2" /><sodipodi:namedview
   id="namedview2"
   pagecolor="#ffffff"
   bordercolor="#000000"
   borderopacity="0.25"
   inkscape:showpageshadow="2"
   inkscape:pageopacity="0.0"
   inkscape:pagecheckerboard="0"
   inkscape:deskcolor="#d1d1d1"
   inkscape:zoom="0.995"
   inkscape:cx="400"
   inkscape:cy="400"
   inkscape:window-width="1920"
   inkscape:window-height="1004"
   inkscape:window-x="0"
   inkscape:window-y="0"
   inkscape:window-maximized="1"
   inkscape:current-layer="Capa_1" />
<g
   id="g2"
   style="fill:#181926;fill-opacity:1">
	<path
   d="M161.463,48.763c-2.929-2.929-7.677-2.929-10.607,0c-2.929,2.929-2.929,7.677,0,10.606   c13.763,13.763,21.342,32.062,21.342,51.526c0,19.463-7.579,37.761-21.342,51.523c-14.203,14.204-32.857,21.305-51.516,21.303   c-18.659-0.001-37.322-7.104-51.527-21.309c-28.405-28.405-28.402-74.625,0.005-103.032c2.929-2.929,2.929-7.678,0-10.606   c-2.929-2.929-7.677-2.929-10.607,0C2.956,83.029,2.953,138.766,37.206,173.019c17.132,17.132,39.632,25.697,62.135,25.696   c22.497-0.001,44.997-8.564,62.123-25.69c16.595-16.594,25.734-38.659,25.734-62.129C187.199,87.425,178.059,65.359,161.463,48.763   z"
   id="path1"
   style="fill:#181926;fill-opacity:1" />
	<path
   d="M99.332,97.164c4.143,0,7.5-3.358,7.5-7.5V7.5c0-4.142-3.357-7.5-7.5-7.5s-7.5,3.358-7.5,7.5v82.164   C91.832,93.807,95.189,97.164,99.332,97.164z"
   id="path2"
   style="fill:#181926;fill-opacity:1" />
</g>
</svg>
